<svg width="25" height="28" viewBox="0 0 25 28" fill="none" xmlns="http://www.w3.org/2000/svg">
<path d="M20.7758 13.071V20.7969C20.7758 21.3314 20.5855 21.789 20.2048 22.1696C19.8242 22.5502 19.3666 22.7405 18.8321 22.7405H5.22669C4.69219 22.7405 4.23463 22.5502 3.854 22.1696C3.47337 21.789 3.28306 21.3314 3.28306 20.7969V13.071C2.91053 12.7308 2.62303 12.2935 2.42057 11.759C2.21811 11.2245 2.21406 10.6414 2.40842 10.0097L3.42883 6.70555C3.55841 6.28443 3.78921 5.9362 4.12125 5.66085C4.45329 5.3855 4.83797 5.24783 5.27528 5.24783H18.7835C19.2209 5.24783 19.6015 5.38145 19.9254 5.6487C20.2494 5.91595 20.4842 6.26823 20.63 6.70555L21.6504 10.0097C21.8448 10.6414 21.8407 11.2164 21.6383 11.7347C21.4358 12.253 21.1483 12.6984 20.7758 13.071ZM14.1674 12.0505C14.6047 12.0505 14.9368 11.9007 15.1635 11.6011C15.3903 11.3014 15.4794 10.9654 15.4308 10.5928L14.8963 7.19146H13.0012V10.7872C13.0012 11.1273 13.1146 11.4229 13.3414 11.674C13.5681 11.925 13.8435 12.0505 14.1674 12.0505ZM9.79424 12.0505C10.1668 12.0505 10.4705 11.925 10.7053 11.674C10.9402 11.4229 11.0576 11.1273 11.0576 10.7872V7.19146H9.16255L8.62805 10.5928C8.56327 10.9815 8.6483 11.3217 8.88316 11.6132C9.11801 11.9048 9.42171 12.0505 9.79424 12.0505ZM5.46965 12.0505C5.76119 12.0505 6.01629 11.9453 6.23495 11.7347C6.45361 11.5241 6.58724 11.2569 6.63583 10.933L7.17033 7.19146H5.27528L4.30347 10.447C4.20628 10.771 4.25892 11.1192 4.46139 11.4918C4.66385 11.8643 4.99994 12.0505 5.46965 12.0505ZM18.5892 12.0505C19.0589 12.0505 19.399 11.8643 19.6096 11.4918C19.8202 11.1192 19.8687 10.771 19.7554 10.447L18.735 7.19146H16.8885L17.423 10.933C17.4716 11.2569 17.6052 11.5241 17.8239 11.7347C18.0425 11.9453 18.2976 12.0505 18.5892 12.0505ZM5.22669 20.7969H18.8321V13.9456C18.7512 13.978 18.6985 13.9942 18.6742 13.9942C18.6499 13.9942 18.6216 13.9942 18.5892 13.9942C18.1519 13.9942 17.7672 13.9213 17.4352 13.7755C17.1031 13.6298 16.7751 13.3949 16.4512 13.071C16.1596 13.3625 15.8276 13.5893 15.4551 13.7512C15.0825 13.9132 14.6857 13.9942 14.2646 13.9942C13.8273 13.9942 13.4183 13.9132 13.0377 13.7512C12.657 13.5893 12.321 13.3625 12.0294 13.071C11.7541 13.3625 11.4342 13.5893 11.0697 13.7512C10.7053 13.9132 10.3125 13.9942 9.89142 13.9942C9.42171 13.9942 8.99654 13.9132 8.61591 13.7512C8.23528 13.5893 7.89919 13.3625 7.60765 13.071C7.26751 13.4111 6.93142 13.65 6.59939 13.7877C6.26735 13.9253 5.89077 13.9942 5.46965 13.9942C5.43725 13.9942 5.40081 13.9942 5.36032 13.9942C5.31983 13.9942 5.27528 13.978 5.22669 13.9456V20.7969ZM18.8321 20.7969H5.22669C5.27528 20.7969 5.31983 20.7969 5.36032 20.7969C5.40081 20.7969 5.43725 20.7969 5.46965 20.7969C5.89077 20.7969 6.26735 20.7969 6.59939 20.7969C6.93142 20.7969 7.26751 20.7969 7.60765 20.7969C7.75342 20.7969 7.91134 20.7969 8.08141 20.7969C8.25147 20.7969 8.43369 20.7969 8.62805 20.7969C8.82242 20.7969 9.02488 20.7969 9.23544 20.7969C9.446 20.7969 9.66466 20.7969 9.89142 20.7969C10.102 20.7969 10.3044 20.7969 10.4988 20.7969C10.6932 20.7969 10.8835 20.7969 11.0697 20.7969C11.256 20.7969 11.4301 20.7969 11.5921 20.7969C11.7541 20.7969 11.8998 20.7969 12.0294 20.7969C12.321 20.7969 12.657 20.7969 13.0377 20.7969C13.4183 20.7969 13.8273 20.7969 14.2646 20.7969C14.4752 20.7969 14.6776 20.7969 14.872 20.7969C15.0663 20.7969 15.2567 20.7969 15.4429 20.7969C15.6292 20.7969 15.8074 20.7969 15.9774 20.7969C16.1475 20.7969 16.3054 20.7969 16.4512 20.7969C16.7751 20.7969 17.1031 20.7969 17.4352 20.7969C17.7672 20.7969 18.1519 20.7969 18.5892 20.7969C18.6216 20.7969 18.6499 20.7969 18.6742 20.7969C18.6985 20.7969 18.7512 20.7969 18.8321 20.7969Z" fill="currentColor"/>
</svg>
