<svg width="25" height="28" viewBox="0 0 25 28" fill="none" xmlns="http://www.w3.org/2000/svg">
<path d="M6.1741 23.7125C5.6396 23.7125 5.18204 23.5221 4.80141 23.1415C4.42078 22.7609 4.23047 22.3033 4.23047 21.7688V10.107C4.23047 9.57252 4.42078 9.11495 4.80141 8.73433C5.18204 8.3537 5.6396 8.16338 6.1741 8.16338H8.11774C8.11774 7.09438 8.49837 6.17926 9.25962 5.418C10.0209 4.65674 10.936 4.27611 12.005 4.27611C13.074 4.27611 13.9891 4.65674 14.7504 5.418C15.5117 6.17926 15.8923 7.09438 15.8923 8.16338H17.8359C18.3704 8.16338 18.828 8.3537 19.2086 8.73433C19.5892 9.11495 19.7795 9.57252 19.7795 10.107V21.7688C19.7795 22.3033 19.5892 22.7609 19.2086 23.1415C18.828 23.5221 18.3704 23.7125 17.8359 23.7125H6.1741ZM6.1741 21.7688H17.8359V10.107H15.8923V12.0507C15.8923 12.326 15.7991 12.5568 15.6129 12.7431C15.4266 12.9293 15.1958 13.0225 14.9205 13.0225C14.6451 13.0225 14.4143 12.9293 14.228 12.7431C14.0418 12.5568 13.9486 12.326 13.9486 12.0507V10.107H10.0614V12.0507C10.0614 12.326 9.96824 12.5568 9.78198 12.7431C9.59571 12.9293 9.3649 13.0225 9.08956 13.0225C8.81421 13.0225 8.5834 12.9293 8.39714 12.7431C8.21087 12.5568 8.11774 12.326 8.11774 12.0507V10.107H6.1741V21.7688ZM10.0614 8.16338H13.9486C13.9486 7.62888 13.7583 7.17132 13.3777 6.79069C12.9971 6.41006 12.5395 6.21975 12.005 6.21975C11.4705 6.21975 11.0129 6.41006 10.6323 6.79069C10.2517 7.17132 10.0614 7.62888 10.0614 8.16338Z" fill="currentColor"/>
</svg>
